<svg width="24" height="24" viewBox="0 0 24 24" fill="none" xmlns="http://www.w3.org/2000/svg">
<path d="M6.4 4.75953C7.89031 3.29902 9.8968 2.48566 11.9834 2.49619C14.0701 2.50673 16.0682 3.34032 17.5437 4.81581C19.0192 6.2913 19.8528 8.28946 19.8633 10.3761C19.8739 12.4627 19.0605 14.4692 17.6 15.9595L13.414 20.1455C13.0389 20.5205 12.5303 20.7311 12 20.7311C11.4697 20.7311 10.9611 20.5205 10.586 20.1455L6.4 15.9595C4.91488 14.4743 4.08057 12.4599 4.08057 10.3595C4.08057 8.25915 4.91488 6.24479 6.4 4.75953Z" stroke="#FE2725" stroke-width="1.5" stroke-linejoin="round"/>
<path d="M12 13.3594C13.6569 13.3594 15 12.0162 15 10.3594C15 8.70252 13.6569 7.35938 12 7.35938C10.3431 7.35938 9 8.70252 9 10.3594C9 12.0162 10.3431 13.3594 12 13.3594Z" stroke="#FE2725" stroke-width="1.5" stroke-linecap="round" stroke-linejoin="round"/>
</svg>
