<svg xmlns="http://www.w3.org/2000/svg" width="1622" height="1383" viewBox="0 0 1622 1383" version="1.1"><path d="M 734.121 238.092 C 703.261 256.557, 691.016 266.806, 675.019 287.564 C 666.309 298.866, 662.159 303.311, 655.801 308.151 C 629.760 327.975, 625.916 333.763, 619.411 362.941 C 617.891 369.762, 616.704 371.890, 605.189 388.441 C 582.345 421.277, 572.167 446.547, 578.111 455.671 L 582.223 461.981 583.043 483.457 L 583.864 504.932 587.583 511.716 C 589.629 515.447, 592.172 519.963, 593.234 521.752 L 595.165 525.003 601.062 520.370 C 612.156 511.654, 639.429 459.904, 651.573 424.526 C 659.251 402.157, 662.287 397.438, 676.466 385.825 L 682.968 380.500 694.380 352 C 704.990 325.500, 711 304.844, 711 294.874 C 711 294.425, 712.440 293.684, 714.200 293.228 C 717.248 292.438, 717.504 291.981, 719.616 283.581 C 721.543 275.913, 722.306 274.372, 725.463 271.770 C 727.867 269.788, 730.803 265.352, 734.152 258.639 C 738.423 250.077, 740.671 247.006, 748.605 238.890 C 756.587 230.726, 761.131 223.352, 757.750 224.052 C 757.612 224.080, 746.980 230.398, 734.121 238.092 M 547.184 466.762 L 532.868 475.500 524.644 491.225 L 516.419 506.949 520.380 539.511 L 524.341 572.073 523.036 587.456 L 521.730 602.840 532.969 624.170 L 544.208 645.500 543.395 657 C 542.948 663.325, 542.563 670.939, 542.541 673.920 L 542.500 679.340 551.500 684.653 L 560.500 689.966 570.500 689.968 C 602.512 689.977, 627.072 687.189, 636.088 682.524 C 671.461 664.218, 722.467 650.691, 760.206 649.607 L 781.912 648.983 785.454 652.094 L 788.997 655.204 805.748 649.036 C 814.962 645.644, 822.823 642.553, 823.217 642.167 C 823.611 641.782, 827.156 626.234, 831.094 607.616 L 838.254 573.766 863.230 543.319 C 876.966 526.573, 888.047 512.734, 887.853 512.566 C 887.659 512.397, 876.925 511.566, 864 510.719 L 840.500 509.179 811.500 499.039 L 782.500 488.899 733.034 483.534 L 683.568 478.170 661.539 481.061 C 646.734 483.003, 639.179 484.404, 638.504 485.333 C 637.952 486.092, 633.028 494.887, 627.561 504.877 L 617.622 523.039 606.061 531.691 C 599.703 536.450, 593.085 541.408, 591.355 542.710 L 588.211 545.077 578.105 526.895 L 568 508.713 567.991 488.607 L 567.981 468.500 564.970 463.250 C 563.314 460.363, 561.856 458.006, 561.730 458.012 C 561.603 458.019, 555.058 461.957, 547.184 466.762 M 878.448 548.317 L 850.397 580.500 844.139 615 C 840.697 633.975, 837.514 650.400, 837.065 651.500 C 836.491 652.908, 830.887 655.720, 818.134 661 C 808.170 665.125, 800.013 668.786, 800.009 669.135 C 799.953 673.260, 809.688 680.968, 821.230 685.938 C 827.979 688.844, 840.455 695.044, 848.956 699.715 L 864.412 708.209 879.250 706.830 L 894.089 705.451 898.295 711.606 L 902.500 717.760 913.413 720.130 L 924.326 722.500 927.202 727.175 C 929.916 731.585, 930.704 732.094, 941.124 736.175 C 951.604 740.279, 952.282 740.720, 954.378 744.800 C 956.487 748.907, 957.302 749.427, 972.543 756.404 L 988.500 763.708 996.932 782.674 L 1005.364 801.640 1010.814 800.786 C 1017.524 799.733, 1016.935 797.098, 1015.218 820.500 L 1013.751 840.500 1022.507 860.500 C 1030.846 879.547, 1066 967.265, 1066 969.025 C 1066 969.485, 1062.513 972.889, 1058.250 976.589 C 1053.809 980.444, 1048.579 986.229, 1046 990.141 C 1041.522 996.933, 1041.477 996.966, 1036.880 996.983 C 1032.752 996.998, 1031.613 997.560, 1026.202 1002.250 L 1020.145 1007.500 1020.072 1015.619 L 1020 1023.738 1032.250 1042.225 L 1044.500 1060.713 1075.481 1089.452 C 1102.567 1114.578, 1150.857 1154.633, 1156.372 1156.548 C 1156.993 1156.764, 1166.685 1157.890, 1177.911 1159.051 L 1198.321 1161.163 1205.613 1153.831 L 1212.906 1146.500 1199.984 1126 C 1182.239 1097.848, 1182.482 1097.305, 1206.130 1112.281 L 1222.535 1122.670 1240.310 1127.066 C 1262.182 1132.477, 1263.295 1132.259, 1263.820 1122.467 C 1264.369 1112.229, 1263.303 1110.366, 1249.728 1097.829 C 1226.982 1076.822, 1222.414 1071.412, 1211.028 1052 C 1204.067 1040.132, 1182.311 1004.163, 1165.663 977 L 1158.003 964.500 1151.963 935.164 L 1145.923 905.828 1147.473 863.164 C 1148.978 821.750, 1148.959 818.988, 1146.808 768.915 C 1144.640 718.421, 1144.632 717.130, 1146.427 707.915 C 1147.962 700.032, 1148.117 696.622, 1147.380 686.961 L 1146.500 675.422 1094.402 625.129 L 1042.305 574.836 975.151 545.418 C 938.217 529.238, 907.661 516.030, 907.249 516.067 C 906.837 516.104, 893.877 530.616, 878.448 548.317 M 456.508 573.810 C 455.412 574.046, 451.449 576.886, 447.701 580.120 C 443.436 583.800, 439.980 586, 438.463 586 C 436.653 586, 435.537 586.988, 434.047 589.908 C 432.496 592.947, 431.103 594.128, 427.777 595.224 C 424.260 596.382, 422.612 597.886, 418.500 603.692 C 412.322 612.416, 407.635 613.635, 396.582 609.393 C 394.946 608.765, 394.844 609.748, 395.111 623.609 L 395.398 638.500 390.449 645.905 L 385.500 653.311 385.518 673.405 C 385.562 724.136, 407.329 746.350, 457 746.355 C 488.345 746.358, 489.110 746.013, 510.167 722.336 C 530.617 699.341, 534.799 687.985, 532.203 662.500 L 531.286 653.500 520 637.500 C 488.382 592.676, 487.791 591.927, 478.852 585.422 C 463.210 574.038, 460.933 572.855, 456.508 573.810" stroke="none" fill="#4c4c4c" fill-rule="evenodd"/><path d="M 713.712 77.026 C 690.614 78.406, 653.243 82.577, 654.321 83.654 C 654.541 83.874, 660.071 83.490, 666.610 82.801 C 1006.407 46.974, 1320.449 314.412, 1353.199 667.500 C 1354.870 685.522, 1354.878 751.815, 1353.211 769.500 C 1350.170 801.754, 1351.208 800.833, 1355.466 767.500 C 1403.710 389.837, 1091.972 54.432, 713.712 77.026 M 735.271 232.856 C 709.765 248.109, 700 254.869, 700 257.271 C 700 257.915, 697.413 261.118, 694.250 264.390 C 689.518 269.284, 690.402 268.703, 699.240 261.107 C 708.507 253.143, 738.449 233.898, 756.881 224.060 C 763.233 220.670, 758.321 230.038, 748.523 240 C 740.608 248.047, 738.413 251.040, 734.171 259.569 C 730.764 266.419, 728.058 270.481, 725.704 272.277 C 722.674 274.588, 721.970 276.029, 720.025 283.900 C 717.960 292.255, 717.605 292.928, 714.948 293.511 C 711.642 294.238, 711.838 293.700, 708.933 310 C 707.254 319.419, 705.237 326.197, 700.749 337.500 C 697.473 345.750, 693.946 354.637, 692.911 357.250 C 690.126 364.279, 691.522 363.011, 694.991 355.360 C 696.647 351.707, 698.645 348.220, 699.431 347.610 C 702.555 345.185, 709.743 324.353, 712.088 310.930 C 714.371 297.858, 714.423 297.721, 717.575 296.404 C 720.516 295.176, 720.926 294.395, 722.962 286.152 C 724.794 278.738, 725.760 276.662, 728.676 273.865 C 730.606 272.014, 734.209 266.450, 736.683 261.500 C 740.362 254.137, 742.959 250.681, 750.961 242.500 L 760.741 232.500 762.225 224.750 C 764.102 214.943, 766.356 214.266, 735.271 232.856 M 698 257.500 C 698 257.775, 698.225 258, 698.500 258 C 698.775 258, 699 257.775, 699 257.500 C 699 257.225, 698.775 257, 698.500 257 C 698.225 257, 698 257.225, 698 257.500 M 683 275.500 C 683 275.775, 683.225 276, 683.500 276 C 683.775 276, 684 275.775, 684 275.500 C 684 275.225, 683.775 275, 683.500 275 C 683.225 275, 683 275.225, 683 275.500 M 680 279.500 C 680 279.775, 680.225 280, 680.500 280 C 680.775 280, 681 279.775, 681 279.500 C 681 279.225, 680.775 279, 680.500 279 C 680.225 279, 680 279.225, 680 279.500 M 699 346.500 C 699 346.775, 699.225 347, 699.500 347 C 699.775 347, 700 346.775, 700 346.500 C 700 346.225, 699.775 346, 699.500 346 C 699.225 346, 699 346.225, 699 346.500 M 699 349.500 C 699 349.775, 699.225 350, 699.500 350 C 699.775 350, 700 349.775, 700 349.500 C 700 349.225, 699.775 349, 699.500 349 C 699.225 349, 699 349.225, 699 349.500 M 698 351.500 C 698 351.775, 698.225 352, 698.500 352 C 698.775 352, 699 351.775, 699 351.500 C 699 351.225, 698.775 351, 698.500 351 C 698.225 351, 698 351.225, 698 351.500 M 697 354.500 C 697 354.775, 697.225 355, 697.500 355 C 697.775 355, 698 354.775, 698 354.500 C 698 354.225, 697.775 354, 697.500 354 C 697.225 354, 697 354.225, 697 354.500 M 690 363.500 C 690 363.775, 690.225 364, 690.500 364 C 690.775 364, 691 363.775, 691 363.500 C 691 363.225, 690.775 363, 690.500 363 C 690.225 363, 690 363.225, 690 363.500 M 689 366.500 C 689 366.775, 689.225 367, 689.500 367 C 689.775 367, 690 366.775, 690 366.500 C 690 366.225, 689.775 366, 689.500 366 C 689.225 366, 689 366.225, 689 366.500 M 688 368.500 C 688 368.775, 688.225 369, 688.500 369 C 688.775 369, 689 368.775, 689 368.500 C 689 368.225, 688.775 368, 688.500 368 C 688.225 368, 688 368.225, 688 368.500 M 687 371.500 C 687 371.775, 687.225 372, 687.500 372 C 687.775 372, 688 371.775, 688 371.500 C 688 371.225, 687.775 371, 687.500 371 C 687.225 371, 687 371.225, 687 371.500 M 686 373.500 C 686 373.775, 686.225 374, 686.500 374 C 686.775 374, 687 373.775, 687 373.500 C 687 373.225, 686.775 373, 686.500 373 C 686.225 373, 686 373.225, 686 373.500 M 684 378.500 C 684 378.775, 684.225 379, 684.500 379 C 684.775 379, 685 378.775, 685 378.500 C 685 378.225, 684.775 378, 684.500 378 C 684.225 378, 684 378.225, 684 378.500 M 681 382.500 C 681 382.775, 681.225 383, 681.500 383 C 681.775 383, 682 382.775, 682 382.500 C 682 382.225, 681.775 382, 681.500 382 C 681.225 382, 681 382.225, 681 382.500 M 699.978 477.035 C 699.165 477.549, 696.925 478.024, 695 478.090 C 693.075 478.157, 711.697 480.402, 736.382 483.080 L 781.265 487.949 811.382 498.372 L 841.500 508.796 862.500 509.994 C 874.050 510.654, 884.793 511.501, 886.374 511.877 C 889.230 512.558, 889.095 512.748, 864.098 543.223 L 838.948 573.883 831.811 607.692 C 823.271 648.149, 828.474 641.426, 796.718 653.038 L 788.937 655.883 785.408 652.785 L 781.879 649.687 759.529 650.357 C 737.696 651.011, 705.472 656.136, 694 660.778 C 688.451 663.024, 705.954 661.114, 722 657.722 C 736.610 654.635, 740.893 654.159, 759.396 653.568 L 780.292 652.900 784.087 655.950 C 788.858 659.784, 786.467 660.148, 807.856 652.334 C 821.605 647.311, 826.434 645.110, 827.097 643.564 C 827.583 642.429, 830.904 627.550, 834.477 610.500 C 838.049 593.450, 841.186 578.591, 841.448 577.480 C 841.709 576.370, 854.072 560.639, 868.920 542.523 C 883.769 524.407, 895.775 509.441, 895.599 509.266 C 895.423 509.090, 882.954 508.105, 867.890 507.077 L 840.500 505.208 811.500 495.050 L 782.500 484.892 746 480.998 C 725.925 478.856, 707.690 476.877, 705.478 476.602 C 703.265 476.326, 700.790 476.521, 699.978 477.035 M 683 477.500 C 683 477.775, 683.225 478, 683.500 478 C 683.775 478, 684 477.775, 684 477.500 C 684 477.225, 683.775 477, 683.500 477 C 683.225 477, 683 477.225, 683 477.500 M 676 478.500 C 676 478.775, 676.225 479, 676.500 479 C 676.775 479, 677 478.775, 677 478.500 C 677 478.225, 676.775 478, 676.500 478 C 676.225 478, 676 478.225, 676 478.500 M 877.755 543.229 C 862.215 560.925, 848.902 576.228, 848.171 577.234 C 847.440 578.241, 843.949 594.687, 840.414 613.782 C 836.879 632.877, 833.821 648.950, 833.619 649.500 C 833.416 650.050, 824.210 654.274, 813.161 658.888 L 793.070 667.275 795.285 670.036 C 806.774 684.355, 805.732 683.510, 818.745 689.064 C 825.480 691.939, 838.305 698.312, 847.245 703.227 L 863.500 712.163 875.157 711.082 C 892.960 709.430, 891.939 709.216, 896.310 715.512 C 898.405 718.530, 900.430 721.025, 900.810 721.055 C 910.153 721.807, 922.672 726.830, 924.777 730.672 C 926.906 734.557, 927.823 735.141, 938.116 739.172 C 947.980 743.035, 949.366 743.883, 951.011 747.067 C 953.532 751.946, 953.658 752.027, 970.554 759.755 L 985.500 766.591 994.228 786.045 L 1002.955 805.500 1007.478 805.167 C 1012.824 804.774, 1012.499 802.860, 1010.845 825 L 1009.688 840.500 1019.435 863 C 1028.389 883.669, 1061.043 965.103, 1061.362 967.561 C 1061.438 968.144, 1058.291 971.401, 1054.369 974.797 C 1050.447 978.193, 1045.497 983.674, 1043.369 986.977 C 1039.617 992.800, 1039.368 992.983, 1035.150 992.991 C 1031.204 992.999, 1030.111 993.616, 1023.400 999.623 L 1016 1006.245 1016 1015.400 L 1016 1024.556 1028.848 1044.028 L 1041.697 1063.500 1072.806 1092.305 C 1095.709 1113.511, 1110.612 1126.316, 1129.299 1140.844 L 1154.682 1160.577 1176.981 1162.863 L 1199.280 1165.149 1204.305 1160.325 C 1207.069 1157.671, 1211.056 1153.848, 1213.165 1151.828 C 1218.187 1147.020, 1218.527 1148.203, 1206.646 1129.126 C 1193.171 1107.487, 1194.067 1109.169, 1197.039 1111.096 C 1219.534 1125.678, 1220.348 1126.063, 1238.339 1130.612 C 1264.478 1137.220, 1267.951 1136.029, 1267.986 1120.446 C 1268.008 1110.692, 1265.019 1105.979, 1250.666 1093.136 C 1228.019 1072.873, 1228.766 1073.853, 1201.725 1028.963 C 1189.975 1009.459, 1176.106 986.520, 1170.905 977.990 L 1161.447 962.480 1155.639 933.970 L 1149.832 905.461 1151.356 860.480 C 1152.839 816.721, 1152.820 814.170, 1150.647 766.500 C 1148.454 718.370, 1148.447 717.349, 1150.270 709 C 1151.814 701.927, 1152.009 698.283, 1151.430 687.294 L 1150.735 674.087 1097.717 622.858 L 1044.699 571.629 977.599 542.229 C 940.695 526.060, 909.490 512.430, 908.255 511.941 C 906.211 511.133, 903.472 513.943, 877.755 543.229 M 878.204 547.611 L 849.908 580.058 843.204 616.279 L 836.500 652.500 817.750 660.471 C 807.438 664.855, 799 668.688, 799 668.989 C 799 673.294, 809.381 681.491, 821.579 686.816 C 828.739 689.942, 841.377 696.214, 849.664 700.753 L 864.732 709.006 879.057 707.494 C 886.936 706.663, 893.668 706.324, 894.018 706.741 C 894.367 707.158, 896.338 709.854, 898.397 712.731 C 902.379 718.293, 901.940 718.080, 916.942 721.703 C 924.010 723.410, 924.513 723.721, 926.955 727.910 C 929.358 732.031, 930.256 732.610, 940.681 736.766 C 951.145 740.937, 951.974 741.474, 954.082 745.448 C 956.201 749.444, 957.184 750.071, 971.414 756.516 C 989.954 764.911, 987.036 761.809, 996.603 783.299 L 1004.705 801.500 1010.453 801.232 L 1016.201 800.964 1015.612 806.732 C 1015.289 809.904, 1014.530 818.581, 1013.925 826.014 L 1012.827 839.528 1022.513 861.928 C 1029.854 878.902, 1056.222 944.413, 1064.889 967.207 C 1065.684 969.299, 1064.923 970.269, 1057.584 976.518 C 1052.478 980.866, 1047.912 985.849, 1045.461 989.747 C 1041.585 995.912, 1041.467 996, 1037.015 996.004 C 1032.952 996.009, 1031.875 996.567, 1026.250 1001.584 L 1020 1007.160 1020 1016.100 L 1020 1025.040 1031.984 1042.976 L 1043.968 1060.911 1074.734 1089.548 C 1097.711 1110.935, 1111.895 1123.161, 1130.761 1137.842 L 1156.022 1157.500 1177.261 1159.648 L 1198.500 1161.797 1205.792 1154.648 C 1214.546 1146.067, 1215.148 1149.026, 1199.580 1124.128 C 1184.058 1099.304, 1184.132 1099.162, 1205.555 1112.689 L 1222.500 1123.389 1240 1127.715 C 1263.351 1133.486, 1266.654 1132.084, 1264.622 1117.261 C 1263.662 1110.258, 1261.636 1107.677, 1245.203 1092.529 C 1227.100 1075.840, 1222.814 1070.608, 1211.368 1051.221 C 1206.589 1043.124, 1192.691 1020.075, 1180.486 1000 L 1158.294 963.500 1152.503 934.904 L 1146.713 906.308 1148.149 862.404 C 1149.528 820.203, 1149.497 816.524, 1147.347 767.555 C 1145.143 717.370, 1145.137 716.489, 1146.986 708.555 C 1148.508 702.023, 1148.751 698.242, 1148.273 688.556 L 1147.684 676.612 1143.674 672.263 C 1141.469 669.870, 1117.892 646.895, 1091.280 621.207 L 1042.895 574.500 976.197 545.243 C 939.514 529.151, 908.825 515.800, 908 515.575 C 907.026 515.308, 896.581 526.538, 878.204 547.611 M 677 666.500 C 677 666.775, 677.225 667, 677.500 667 C 677.775 667, 678 666.775, 678 666.500 C 678 666.225, 677.775 666, 677.500 666 C 677.225 666, 677 666.225, 677 666.500 M 674 667.500 C 674 667.775, 674.225 668, 674.500 668 C 674.775 668, 675 667.775, 675 667.500 C 675 667.225, 674.775 667, 674.500 667 C 674.225 667, 674 667.225, 674 667.500 M 294.682 1107.521 C 469.341 1309.073, 791.716 1363.816, 1034.106 1233.083 C 1052.306 1223.267, 1078.124 1207.768, 1078.698 1206.314 C 1079.178 1205.096, 1028.331 1141, 1026.885 1141 C 1026.444 1141, 1021.451 1144.618, 1015.791 1149.039 C 811.283 1308.802, 503.798 1293.822, 304.627 1114.394 C 291.139 1102.243, 288.569 1100.467, 294.682 1107.521" stroke="none" fill="#cf3c31" fill-rule="evenodd"/></svg>